{
  "source": "C:\\Users\\Peter\\Desktop\\stuff\\MIUN\\quantitative_research\\video_compression\\videos\\UVG\\ShakeNDry_1920x1080_120fps_420_8bit_YUV.y4m",
  "output": "C:\\Users\\Peter\\Desktop\\stuff\\MIUN\\quantitative_research\\video_compression\\compressed_videos\\UVG\\av1\\2.5\\ShakeNDry_1920x1080_120fps_420_8bit_YUV_av1.mkv",
  "codec": "av1",
  "ok": "[yuv4mpegpipe @ 000002235e8c5380] Stream #0: not enough frames to estimate rate; consider increasing probesize\nInput #0, yuv4mpegpipe, from 'C:\\Users\\Peter\\Desktop\\stuff\\MIUN\\quantitative_research\\video_compression\\videos\\UVG\\ShakeNDry_1920x1080_120fps_420_8bit_YUV.y4m':\n  Duration: 00:00:02.50, start: 0.000000, bitrate: 2985989 kb/s\n  Stream #0:0: Video: rawvideo (I420 / 0x30323449), yuv420p(progressive), 1920x1080, 120 fps, 120 tbr, 120 tbn\n[out#0/matroska @ 000002235e8c90c0] Codec AVOption b:a (set bitrate (in bits/s)) has not been used for any stream. The most likely reason is either wrong type (e.g. a video option with no video streams) or that it is a private option of some decoder which was not actually used for any stream.\nStream mapping:\n  Stream #0:0 -> #0:0 (rawvideo (native) -> av1 (libsvtav1))\nPress [q] to stop, [?] for help\nSvt[info]: -------------------------------------------\nSvt[info]: SVT [version]:\tSVT-AV1 Encoder Lib v3.1.0-19-g6ecfe8ec\nSvt[info]: SVT [build]  :\tGCC 15.2.0\t 64 bit\nSvt[info]: LIB Build date: Aug 17 2025 11:37:13\nSvt[info]: -------------------------------------------\n[libsvtav1 @ 000002235e8cc1c0] Specified chroma sample location center is unsupported on the AV1 bit stream level. Usage of a container that allows passing this information - such as Matroska - is recommended.\nSvt[info]: Level of Parallelism: 5\nSvt[info]: Number of PPCS 93\nSvt[info]: [asm level on system : up to avx2]\nSvt[info]: [asm level selected : up to avx2]\nSvt[info]: -------------------------------------------\nSvt[info]: SVT [config]: main profile\ttier (auto)\tlevel (auto)\nSvt[info]: SVT [config]: width / height / fps numerator / fps denominator \t\t: 1920 / 1080 / 120 / 1\nSvt[info]: SVT [config]: bit-depth / color format \t\t\t\t\t: 8 / YUV420\nSvt[info]: SVT [config]: preset / tune / pred struct \t\t\t\t\t: 4 / PSNR / random access\nSvt[info]: SVT [config]: gop size / mini-gop size / key-frame type \t\t\t: 641 / 16 / key frame\nSvt[info]: SVT [config]: BRC mode / target bitrate (kbps)\t\t\t\t: VBR / 2500 \nSvt[info]: SVT [config]: AQ mode / Variance Boost \t\t\t\t\t: 2 / 0\nSvt[info]: SVT [config]: sharpness / luminance-based QP bias \t\t\t\t: 0 / 0\nSvt[info]: SVT [config]: QP scale compress strength \t\t\t\t\t: 0\nSvt[info]: -------------------------------------------\nOutput #0, matroska, to 'C:\\Users\\Peter\\Desktop\\stuff\\MIUN\\quantitative_research\\video_compression\\compressed_videos\\UVG\\av1\\2.5\\ShakeNDry_1920x1080_120fps_420_8bit_YUV_av1.mkv':\n  Metadata:\n    encoder         : Lavf62.3.100\n  Stream #0:0: Video: av1 (AV01 / 0x31305641), yuv420p(tv, progressive), 1920x1080, q=2-31, 2500 kb/s, 120 fps, 1k tbn\n    Metadata:\n      encoder         : Lavc62.11.100 libsvtav1\n    Side data:\n      cpb: bitrate max/min/avg: 0/0/2500000 buffer size: 2500000 vbv_delay: N/A\nframe=    0 fps=0.0 q=0.0 size=       0KiB time=N/A bitrate=N/A speed=N/A elapsed=0:00:04.01    \nframe=    0 fps=0.0 q=0.0 size=       0KiB time=N/A bitrate=N/A speed=N/A elapsed=0:00:04.52    \nframe=    0 fps=0.0 q=0.0 size=       0KiB time=N/A bitrate=N/A speed=N/A elapsed=0:00:05.04    \nframe=    0 fps=0.0 q=0.0 size=       0KiB time=N/A bitrate=N/A speed=N/A elapsed=0:00:05.56    \nframe=    0 fps=0.0 q=0.0 size=       0KiB time=N/A bitrate=N/A speed=N/A elapsed=0:00:06.07    \nframe=    0 fps=0.0 q=0.0 size=       0KiB time=N/A bitrate=N/A speed=N/A elapsed=0:00:06.59    \nframe=    0 fps=0.0 q=0.0 size=       0KiB time=N/A bitrate=N/A speed=N/A elapsed=0:00:07.11    \nframe=    0 fps=0.0 q=0.0 size=       0KiB time=N/A bitrate=N/A speed=N/A elapsed=0:00:07.62    \nframe=    0 fps=0.0 q=0.0 size=       0KiB time=N/A bitrate=N/A speed=N/A elapsed=0:00:08.13    \nframe=    0 fps=0.0 q=0.0 size=       0KiB time=N/A bitrate=N/A speed=N/A elapsed=0:00:08.66    \nframe=    0 fps=0.0 q=0.0 size=       0KiB time=N/A bitrate=N/A speed=N/A elapsed=0:00:09.35    \nframe=    0 fps=0.0 q=0.0 size=       0KiB time=N/A bitrate=N/A speed=N/A elapsed=0:00:09.87    \nframe=    0 fps=0.0 q=0.0 size=       0KiB time=N/A bitrate=N/A speed=N/A elapsed=0:00:10.39    \nframe=    0 fps=0.0 q=0.0 size=       0KiB time=N/A bitrate=N/A speed=N/A elapsed=0:00:10.99    \nframe=    0 fps=0.0 q=0.0 size=       0KiB time=N/A bitrate=N/A speed=N/A elapsed=0:00:11.60    \nframe=    0 fps=0.0 q=0.0 size=       0KiB time=N/A bitrate=N/A speed=N/A elapsed=0:00:12.12    \nframe=    0 fps=0.0 q=0.0 size=       0KiB time=N/A bitrate=N/A speed=N/A elapsed=0:00:12.65    \nframe=    0 fps=0.0 q=0.0 size=       0KiB time=N/A bitrate=N/A speed=N/A elapsed=0:00:13.20    \nframe=    0 fps=0.0 q=0.0 size=       0KiB time=N/A bitrate=N/A speed=N/A elapsed=0:00:13.73    \nframe=    0 fps=0.0 q=0.0 size=       0KiB time=N/A bitrate=N/A speed=N/A elapsed=0:00:14.36    \nframe=    0 fps=0.0 q=0.0 size=       0KiB time=N/A bitrate=N/A speed=N/A elapsed=0:00:14.91    \nframe=    1 fps=0.1 q=27.0 size=       1KiB time=00:00:00.00 bitrate=N/A speed=   0x elapsed=0:00:15.42    \nframe=    1 fps=0.1 q=27.0 size=       1KiB time=00:00:00.00 bitrate=N/A speed=   0x elapsed=0:00:15.94    \nframe=    1 fps=0.1 q=27.0 size=       1KiB time=00:00:00.00 bitrate=N/A speed=   0x elapsed=0:00:16.44    \nframe=    1 fps=0.1 q=27.0 size=       1KiB time=00:00:00.00 bitrate=N/A speed=   0x elapsed=0:00:16.96    \nframe=    3 fps=0.2 q=56.0 size=       1KiB time=00:00:00.01 bitrate= 268.8kbits/s speed=0.000954x elapsed=0:00:17.47    \nframe=    5 fps=0.3 q=54.0 size=       1KiB time=00:00:00.03 bitrate= 134.4kbits/s speed=0.00185x elapsed=0:00:18.00    \nframe=    7 fps=0.4 q=55.0 size=       1KiB time=00:00:00.05 bitrate=  89.6kbits/s speed=0.0027x elapsed=0:00:18.51    \nframe=    9 fps=0.5 q=51.0 size=       1KiB time=00:00:00.06 bitrate=  67.2kbits/s speed=0.0035x elapsed=0:00:19.02    \nframe=   10 fps=0.5 q=54.0 size=       1KiB time=00:00:00.07 bitrate=  59.7kbits/s speed=0.00384x elapsed=0:00:19.53    \nframe=   10 fps=0.5 q=54.0 size=       1KiB time=00:00:00.07 bitrate=  59.7kbits/s speed=0.00374x elapsed=0:00:20.06    \nframe=   12 fps=0.6 q=56.0 size=       1KiB time=00:00:00.09 bitrate=  48.9kbits/s speed=0.00445x elapsed=0:00:20.58    \nframe=   15 fps=0.7 q=54.0 size=       1KiB time=00:00:00.11 bitrate=  38.4kbits/s speed=0.00553x elapsed=0:00:21.10    \nframe=   17 fps=0.8 q=42.0 size=       1KiB time=00:00:00.13 bitrate=  33.6kbits/s speed=0.00617x elapsed=0:00:21.60    \nframe=   18 fps=0.8 q=52.0 size=       1KiB time=00:00:00.14 bitrate=  31.6kbits/s speed=0.0064x elapsed=0:00:22.13    \nframe=   19 fps=0.8 q=55.0 size=       1KiB time=00:00:00.15 bitrate=  29.9kbits/s speed=0.00663x elapsed=0:00:22.63    \nframe=   20 fps=0.9 q=51.0 size=       1KiB time=00:00:00.15 bitrate=  28.3kbits/s speed=0.00684x elapsed=0:00:23.14    \nframe=   22 fps=0.9 q=50.0 size=       1KiB time=00:00:00.17 bitrate=  25.6kbits/s speed=0.00739x elapsed=0:00:23.67    \nframe=   23 fps=1.0 q=53.0 size=       1KiB time=00:00:00.18 bitrate=  24.4kbits/s speed=0.00758x elapsed=0:00:24.18    \nframe=   24 fps=1.0 q=51.0 size=       1KiB time=00:00:00.19 bitrate=  23.4kbits/s speed=0.00776x elapsed=0:00:24.70    \nframe=   26 fps=1.0 q=52.0 size=       1KiB time=00:00:00.20 bitrate=  21.5kbits/s speed=0.00826x elapsed=0:00:25.21    \nframe=   27 fps=1.0 q=53.0 size=       1KiB time=00:00:00.21 bitrate=  20.7kbits/s speed=0.00842x elapsed=0:00:25.73    \nframe=   27 fps=1.0 q=53.0 size=       1KiB time=00:00:00.21 bitrate=  20.7kbits/s speed=0.00825x elapsed=0:00:26.25    \nframe=   28 fps=1.0 q=51.0 size=       1KiB time=00:00:00.22 bitrate=  19.9kbits/s speed=0.00841x elapsed=0:00:26.76    \nframe=   28 fps=1.0 q=51.0 size=       1KiB time=00:00:00.22 bitrate=  19.9kbits/s speed=0.00825x elapsed=0:00:27.28    \nframe=   30 fps=1.1 q=52.0 size=       1KiB time=00:00:00.24 bitrate=  18.5kbits/s speed=0.0087x elapsed=0:00:27.79    \nframe=   33 fps=1.2 q=42.0 size=       1KiB time=00:00:00.26 bitrate=  16.8kbits/s speed=0.00942x elapsed=0:00:28.31    \nframe=   34 fps=1.2 q=51.0 size=       1KiB time=00:00:00.27 bitrate=  16.3kbits/s speed=0.00954x elapsed=0:00:28.83    \nframe=   36 fps=1.2 q=51.0 size=       1KiB time=00:00:00.29 bitrate=  15.4kbits/s speed=0.00994x elapsed=0:00:29.33    \nframe=   38 fps=1.3 q=52.0 size=       1KiB time=00:00:00.30 bitrate=  14.5kbits/s speed=0.0103x elapsed=0:00:29.85    \nframe=   39 fps=1.3 q=52.0 size=       1KiB time=00:00:00.31 bitrate=  14.1kbits/s speed=0.0104x elapsed=0:00:30.36    \nframe=   40 fps=1.3 q=51.0 size=       1KiB time=00:00:00.32 bitrate=  13.8kbits/s speed=0.0105x elapsed=0:00:30.88    \nframe=   43 fps=1.4 q=53.0 size=       1KiB time=00:00:00.35 bitrate=  12.8kbits/s speed=0.0111x elapsed=0:00:31.41    \nframe=   44 fps=1.4 q=51.0 size=       1KiB time=00:00:00.35 bitrate=  12.5kbits/s speed=0.0112x elapsed=0:00:31.93    \nframe=   45 fps=1.4 q=51.0 size=       1KiB time=00:00:00.36 bitrate=  12.2kbits/s speed=0.0113x elapsed=0:00:32.45    \nframe=   47 fps=1.4 q=53.0 size=       1KiB time=00:00:00.38 bitrate=  11.7kbits/s speed=0.0116x elapsed=0:00:32.96    \nframe=   49 fps=1.5 q=39.0 size=       1KiB time=00:00:00.40 bitrate=  11.2kbits/s speed=0.0119x elapsed=0:00:33.48    \nframe=   49 fps=1.4 q=39.0 size=       1KiB time=00:00:00.40 bitrate=  11.2kbits/s speed=0.0118x elapsed=0:00:34.00    \nframe=   51 fps=1.5 q=53.0 size=       1KiB time=00:00:00.41 bitrate=  10.8kbits/s speed=0.0121x elapsed=0:00:34.52    \nframe=   52 fps=1.5 q=52.0 size=       1KiB time=00:00:00.42 bitrate=  10.5kbits/s speed=0.0121x elapsed=0:00:35.03    \nframe=   54 fps=1.5 q=52.0 size=       1KiB time=00:00:00.44 bitrate=  10.1kbits/s speed=0.0124x elapsed=0:00:35.54    \nframe=   55 fps=1.5 q=53.0 size=       1KiB time=00:00:00.45 bitrate=  10.0kbits/s speed=0.0125x elapsed=0:00:36.05    \nframe=   55 fps=1.5 q=53.0 size=       1KiB time=00:00:00.45 bitrate=  10.0kbits/s speed=0.0123x elapsed=0:00:36.57    \nframe=   56 fps=1.5 q=52.0 size=       1KiB time=00:00:00.45 bitrate=   9.8kbits/s speed=0.0124x elapsed=0:00:37.09    \nframe=   58 fps=1.5 q=51.0 size=       1KiB time=00:00:00.47 bitrate=   9.4kbits/s speed=0.0126x elapsed=0:00:37.61    \nframe=   60 fps=1.6 q=51.0 size=       1KiB time=00:00:00.49 bitrate=   9.1kbits/s speed=0.0129x elapsed=0:00:38.12    \nframe=   62 fps=1.6 q=51.0 size=       1KiB time=00:00:00.50 bitrate=   8.8kbits/s speed=0.0132x elapsed=0:00:38.63    \nframe=   64 fps=1.6 q=51.0 size=       1KiB time=00:00:00.52 bitrate=   8.5kbits/s speed=0.0134x elapsed=0:00:39.15    \nframe=   66 fps=1.7 q=53.0 size=       1KiB time=00:00:00.54 bitrate=   8.3kbits/s speed=0.0137x elapsed=0:00:39.67    \nframe=   67 fps=1.7 q=53.0 size=       1KiB time=00:00:00.55 bitrate=   8.1kbits/s speed=0.0137x elapsed=0:00:40.18    \nframe=   68 fps=1.7 q=52.0 size=       1KiB time=00:00:00.55 bitrate=   8.0kbits/s speed=0.0137x elapsed=0:00:40.71    \nframe=   69 fps=1.7 q=51.0 size=       1KiB time=00:00:00.56 bitrate=   7.9kbits/s speed=0.0137x elapsed=0:00:41.22    \nframe=   72 fps=1.7 q=52.0 size=       1KiB time=00:00:00.59 bitrate=   7.6kbits/s speed=0.0142x elapsed=0:00:41.73    \nframe=   73 fps=1.7 q=41.0 size=       1KiB time=00:00:00.60 bitrate=   7.5kbits/s speed=0.0142x elapsed=0:00:42.24    \nframe=   76 fps=1.8 q=51.0 size=       1KiB time=00:00:00.62 bitrate=   7.2kbits/s speed=0.0146x elapsed=0:00:42.76    \nframe=   79 fps=1.8 q=50.0 size=       1KiB time=00:00:00.65 bitrate=   6.9kbits/s speed=0.015x elapsed=0:00:43.28    \nframe=   81 fps=1.8 q=26.0 size=       1KiB time=00:00:00.66 bitrate=   6.7kbits/s speed=0.0152x elapsed=0:00:43.79    \nframe=   82 fps=1.9 q=51.0 size=       1KiB time=00:00:00.67 bitrate=   6.6kbits/s speed=0.0152x elapsed=0:00:44.31    \nframe=   83 fps=1.9 q=53.0 size=       1KiB time=00:00:00.68 bitrate=   6.6kbits/s speed=0.0152x elapsed=0:00:44.82    \nframe=   86 fps=1.9 q=51.0 size=       1KiB time=00:00:00.70 bitrate=   6.3kbits/s speed=0.0156x elapsed=0:00:45.33    \nframe=   87 fps=1.9 q=53.0 size=       1KiB time=00:00:00.71 bitrate=   6.3kbits/s speed=0.0156x elapsed=0:00:45.85    \nframe=   89 fps=1.9 q=40.0 size=       1KiB time=00:00:00.73 bitrate=   6.1kbits/s speed=0.0158x elapsed=0:00:46.37    \nframe=   90 fps=1.9 q=50.0 size=       1KiB time=00:00:00.74 bitrate=   6.0kbits/s speed=0.0158x elapsed=0:00:46.88    \nframe=   92 fps=1.9 q=49.0 size=       1KiB time=00:00:00.75 bitrate=   5.9kbits/s speed=0.016x elapsed=0:00:47.40    \nframe=   94 fps=2.0 q=50.0 size=       1KiB time=00:00:00.77 bitrate=   5.8kbits/s speed=0.0162x elapsed=0:00:47.91    \nframe=   97 fps=2.0 q=24.0 size=       1KiB time=00:00:00.80 bitrate=   5.6kbits/s speed=0.0165x elapsed=0:00:48.44    \nframe=   97 fps=2.0 q=24.0 size=       1KiB time=00:00:00.80 bitrate=   5.6kbits/s speed=0.0163x elapsed=0:00:48.94    \nframe=   98 fps=2.0 q=49.0 size=       1KiB time=00:00:00.80 bitrate=   5.5kbits/s speed=0.0163x elapsed=0:00:49.46    \nframe=   99 fps=2.0 q=51.0 size=       1KiB time=00:00:00.81 bitrate=   5.5kbits/s speed=0.0163x elapsed=0:00:49.97    \nframe=  103 fps=2.0 q=51.0 size=       1KiB time=00:00:00.85 bitrate=   5.3kbits/s speed=0.0168x elapsed=0:00:50.50    \nframe=  103 fps=2.0 q=51.0 size=       1KiB time=00:00:00.85 bitrate=   5.3kbits/s speed=0.0167x elapsed=0:00:51.01    \nframe=  105 fps=2.0 q=38.0 size=       1KiB time=00:00:00.86 bitrate=   5.2kbits/s speed=0.0168x elapsed=0:00:51.52    \nframe=  107 fps=2.1 q=47.0 size=       1KiB time=00:00:00.88 bitrate=   5.1kbits/s speed=0.017x elapsed=0:00:52.04    \nframe=  108 fps=2.1 q=48.0 size=       1KiB time=00:00:00.89 bitrate=   5.0kbits/s speed=0.017x elapsed=0:00:52.56    \nframe=  111 fps=2.1 q=49.0 size=       1KiB time=00:00:00.91 bitrate=   4.9kbits/s speed=0.0173x elapsed=0:00:53.08    \nframe=  113 fps=2.1 q=24.0 size=       1KiB time=00:00:00.93 bitrate=   4.8kbits/s speed=0.0174x elapsed=0:00:53.59    \nframe=  114 fps=2.1 q=48.0 size=       1KiB time=00:00:00.94 bitrate=   4.8kbits/s speed=0.0174x elapsed=0:00:54.11    \nframe=  114 fps=2.1 q=48.0 size=       1KiB time=00:00:00.94 bitrate=   4.8kbits/s speed=0.0172x elapsed=0:00:54.61    \nframe=  116 fps=2.1 q=47.0 size=       1KiB time=00:00:00.95 bitrate=   4.7kbits/s speed=0.0174x elapsed=0:00:55.14    \nframe=  119 fps=2.1 q=50.0 size=       1KiB time=00:00:00.98 bitrate=   4.6kbits/s speed=0.0177x elapsed=0:00:55.65    \nframe=  122 fps=2.2 q=47.0 size=       1KiB time=00:00:01.00 bitrate=   4.4kbits/s speed=0.0179x elapsed=0:00:56.17    \nframe=  124 fps=2.2 q=47.0 size=       1KiB time=00:00:01.02 bitrate=   4.4kbits/s speed=0.0181x elapsed=0:00:56.68    \nframe=  128 fps=2.2 q=48.0 size=       1KiB time=00:00:01.05 bitrate=   4.2kbits/s speed=0.0185x elapsed=0:00:57.21    \nframe=  129 fps=2.2 q=21.0 size=       1KiB time=00:00:01.06 bitrate=   4.2kbits/s speed=0.0185x elapsed=0:00:57.72    \nframe=  131 fps=2.2 q=49.0 size=       1KiB time=00:00:01.08 bitrate=   4.1kbits/s speed=0.0186x elapsed=0:00:58.24    \nframe=  132 fps=2.2 q=46.0 size=       1KiB time=00:00:01.09 bitrate=   4.1kbits/s speed=0.0186x elapsed=0:00:58.76    \nframe=  134 fps=2.3 q=47.0 size=       1KiB time=00:00:01.10 bitrate=   4.0kbits/s speed=0.0187x elapsed=0:00:59.27    \nframe=  137 fps=2.3 q=36.0 size=       1KiB time=00:00:01.13 bitrate=   4.0kbits/s speed=0.019x elapsed=0:00:59.79    \nframe=  140 fps=2.3 q=44.0 size=       1KiB time=00:00:01.15 bitrate=   3.9kbits/s speed=0.0192x elapsed=0:01:00.30    \nframe=  143 fps=2.4 q=47.0 size=       1KiB time=00:00:01.18 bitrate=   3.8kbits/s speed=0.0195x elapsed=0:01:00.82    \nframe=  145 fps=2.4 q=21.0 size=       1KiB time=00:00:01.20 bitrate=   3.7kbits/s speed=0.0196x elapsed=0:01:01.34    \nframe=  146 fps=2.4 q=45.0 size=       1KiB time=00:00:01.20 bitrate=   3.7kbits/s speed=0.0195x elapsed=0:01:01.86    \nframe=  147 fps=2.4 q=47.0 size=       1KiB time=00:00:01.21 bitrate=   3.7kbits/s speed=0.0195x elapsed=0:01:02.38    \nframe=  148 fps=2.4 q=43.0 size=       1KiB time=00:00:01.22 bitrate=   3.7kbits/s speed=0.0195x elapsed=0:01:02.88    \nframe=  150 fps=2.4 q=42.0 size=       1KiB time=00:00:01.24 bitrate=   3.6kbits/s speed=0.0196x elapsed=0:01:03.40    \nframe=  151 fps=2.4 q=45.0 size=       1KiB time=00:00:01.25 bitrate=   3.6kbits/s speed=0.0196x elapsed=0:01:03.91    \nframe=  153 fps=2.4 q=35.0 size=       1KiB time=00:00:01.26 bitrate=   3.5kbits/s speed=0.0197x elapsed=0:01:04.43    \nframe=  155 fps=2.4 q=45.0 size=       1KiB time=00:00:01.28 bitrate=   3.5kbits/s speed=0.0198x elapsed=0:01:04.94    \nframe=  157 fps=2.4 q=44.0 size=       1KiB time=00:00:01.30 bitrate=   3.4kbits/s speed=0.0199x elapsed=0:01:05.46    \nframe=  158 fps=2.4 q=41.0 size=       1KiB time=00:00:01.30 bitrate=   3.4kbits/s speed=0.0198x elapsed=0:01:05.99    \nframe=  160 fps=2.4 q=41.0 size=       1KiB time=00:00:01.32 bitrate=   3.4kbits/s speed=0.0199x elapsed=0:01:06.52    \nframe=  161 fps=2.4 q=20.0 size=       1KiB time=00:00:01.33 bitrate=   3.4kbits/s speed=0.0199x elapsed=0:01:07.02    \nframe=  163 fps=2.4 q=44.0 size=       1KiB time=00:00:01.35 bitrate=   3.3kbits/s speed=0.02x elapsed=0:01:07.54    \nframe=  166 fps=2.4 q=40.0 size=       1KiB time=00:00:01.37 bitrate=   3.3kbits/s speed=0.0202x elapsed=0:01:08.06    \nframe=  167 fps=2.4 q=43.0 size=       1KiB time=00:00:01.38 bitrate=   3.2kbits/s speed=0.0202x elapsed=0:01:08.57    \nframe=  169 fps=2.4 q=33.0 size=       1KiB time=00:00:01.40 bitrate=   3.2kbits/s speed=0.0203x elapsed=0:01:09.08    \nframe=  171 fps=2.5 q=44.0 size=       1KiB time=00:00:01.41 bitrate=   3.2kbits/s speed=0.0204x elapsed=0:01:09.60    \nframe=  173 fps=2.5 q=46.0 size=       1KiB time=00:00:01.43 bitrate=   3.1kbits/s speed=0.0204x elapsed=0:01:10.11    \nframe=  175 fps=2.5 q=44.0 size=       1KiB time=00:00:01.45 bitrate=   3.1kbits/s speed=0.0205x elapsed=0:01:10.64    \nframe=  177 fps=2.5 q=20.0 size=       1KiB time=00:00:01.46 bitrate=   3.1kbits/s speed=0.0206x elapsed=0:01:11.16    \nframe=  178 fps=2.5 q=42.0 size=       1KiB time=00:00:01.47 bitrate=   3.0kbits/s speed=0.0206x elapsed=0:01:11.67    \nframe=  180 fps=2.5 q=43.0 size=       1KiB time=00:00:01.49 bitrate=   3.0kbits/s speed=0.0207x elapsed=0:01:12.17    \nframe=  181 fps=2.5 q=45.0 size=       1KiB time=00:00:01.50 bitrate=   3.0kbits/s speed=0.0206x elapsed=0:01:12.70    \nframe=  184 fps=2.5 q=43.0 size=       1KiB time=00:00:01.52 bitrate=   2.9kbits/s speed=0.0208x elapsed=0:01:13.21    \nframe=  187 fps=2.5 q=46.0 size=       1KiB time=00:00:01.55 bitrate=   2.9kbits/s speed=0.021x elapsed=0:01:13.73    \nframe=  189 fps=2.5 q=45.0 size=       1KiB time=00:00:01.56 bitrate=   2.9kbits/s speed=0.0211x elapsed=0:01:14.24    \nframe=  190 fps=2.5 q=44.0 size=       1KiB time=00:00:01.57 bitrate=   2.8kbits/s speed=0.0211x elapsed=0:01:14.77    \nframe=  193 fps=2.6 q=22.0 size=       1KiB time=00:00:01.60 bitrate=   2.8kbits/s speed=0.0213x elapsed=0:01:15.29    \nframe=  196 fps=2.6 q=44.0 size=       1KiB time=00:00:01.62 bitrate=   2.8kbits/s speed=0.0214x elapsed=0:01:15.80    \nframe=  199 fps=2.6 q=47.0 size=       1KiB time=00:00:01.65 bitrate=   2.7kbits/s speed=0.0216x elapsed=0:01:16.36    \nframe=  205 fps=2.7 q=44.0 size=       1KiB time=00:00:01.70 bitrate=   2.6kbits/s speed=0.0221x elapsed=0:01:16.92    \nframe=  209 fps=2.7 q=20.0 size=       1KiB time=00:00:01.73 bitrate=   2.6kbits/s speed=0.0224x elapsed=0:01:17.44    \nframe=  213 fps=2.7 q=45.0 size=       1KiB time=00:00:01.75 bitrate=   2.6kbits/s speed=0.0224x elapsed=0:01:17.98    \nframe=  217 fps=2.8 q=33.0 size=       1KiB time=00:00:01.80 bitrate=   2.5kbits/s speed=0.0229x elapsed=0:01:18.56    \nframe=  221 fps=2.8 q=45.0 size=       1KiB time=00:00:01.83 bitrate=   2.4kbits/s speed=0.0232x elapsed=0:01:19.14    \nframe=  221 fps=2.8 q=45.0 size=       1KiB time=00:00:01.83 bitrate=   2.4kbits/s speed=0.023x elapsed=0:01:19.65    \nframe=  225 fps=2.8 q=24.0 size=       1KiB time=00:00:01.86 bitrate=   2.4kbits/s speed=0.0233x elapsed=0:01:20.17    \nframe=  227 fps=2.8 q=46.0 size=       1KiB time=00:00:01.88 bitrate=   2.4kbits/s speed=0.0233x elapsed=0:01:20.70    \nframe=  229 fps=2.8 q=45.0 size=       1KiB time=00:00:01.90 bitrate=   2.4kbits/s speed=0.0234x elapsed=0:01:21.23    \nframe=  233 fps=2.8 q=33.0 size=       1KiB time=00:00:01.91 bitrate=   2.3kbits/s speed=0.0234x elapsed=0:01:21.76    \nframe=  233 fps=2.8 q=33.0 size=       1KiB time=00:00:01.93 bitrate=   2.3kbits/s speed=0.0235x elapsed=0:01:22.27    \nframe=  235 fps=2.8 q=46.0 size=       1KiB time=00:00:01.95 bitrate=   2.3kbits/s speed=0.0235x elapsed=0:01:22.86    \nframe=  237 fps=2.8 q=45.0 size=       1KiB time=00:00:01.96 bitrate=   2.3kbits/s speed=0.0236x elapsed=0:01:23.46    \nframe=  239 fps=2.8 q=46.0 size=       1KiB time=00:00:01.98 bitrate=   2.3kbits/s speed=0.0236x elapsed=0:01:24.00    \nframe=  241 fps=2.9 q=24.0 size=       1KiB time=00:00:02.00 bitrate=   2.2kbits/s speed=0.0237x elapsed=0:01:24.52    \nframe=  241 fps=2.8 q=24.0 size=       1KiB time=00:00:02.00 bitrate=   2.2kbits/s speed=0.0235x elapsed=0:01:25.06    \nframe=  243 fps=2.8 q=45.0 size=       1KiB time=00:00:02.01 bitrate=   2.2kbits/s speed=0.0236x elapsed=0:01:25.58    \nframe=  245 fps=2.8 q=44.0 size=       1KiB time=00:00:02.03 bitrate=   2.2kbits/s speed=0.0236x elapsed=0:01:26.08    \nframe=  249 fps=2.9 q=33.0 size=       1KiB time=00:00:02.06 bitrate=   2.2kbits/s speed=0.0239x elapsed=0:01:26.60    \nframe=  249 fps=2.9 q=33.0 size=       1KiB time=00:00:02.06 bitrate=   2.2kbits/s speed=0.0237x elapsed=0:01:27.16    \nframe=  251 fps=2.9 q=45.0 size=       1KiB time=00:00:02.08 bitrate=   2.2kbits/s speed=0.0238x elapsed=0:01:27.68    \nframe=  255 fps=2.9 q=44.0 size=       1KiB time=00:00:02.11 bitrate=   2.1kbits/s speed=0.024x elapsed=0:01:28.22    \nframe=  257 fps=2.9 q=23.0 size=       1KiB time=00:00:02.13 bitrate=   2.1kbits/s speed=0.024x elapsed=0:01:28.80    \nframe=  261 fps=2.9 q=44.0 size=       1KiB time=00:00:02.16 bitrate=   2.1kbits/s speed=0.0243x elapsed=0:01:29.34    \nframe=  265 fps=2.9 q=31.0 size=       1KiB time=00:00:02.18 bitrate=   2.1kbits/s speed=0.0243x elapsed=0:01:29.86    \nframe=  265 fps=2.9 q=31.0 size=       1KiB time=00:00:02.20 bitrate=   2.0kbits/s speed=0.0243x elapsed=0:01:30.48    \nframe=  267 fps=2.9 q=45.0 size=       1KiB time=00:00:02.21 bitrate=   2.0kbits/s speed=0.0243x elapsed=0:01:31.03    \nframe=  269 fps=2.9 q=43.0 size=       1KiB time=00:00:02.23 bitrate=   2.0kbits/s speed=0.0244x elapsed=0:01:31.55    \nframe=  273 fps=3.0 q=21.0 size=       1KiB time=00:00:02.26 bitrate=   2.0kbits/s speed=0.0246x elapsed=0:01:32.08    \nframe=  277 fps=3.0 q=41.0 size=       1KiB time=00:00:02.30 bitrate=   1.9kbits/s speed=0.0248x elapsed=0:01:32.60    \nframe=  281 fps=3.0 q=30.0 size=       1KiB time=00:00:02.33 bitrate=   1.9kbits/s speed=0.0251x elapsed=0:01:33.12    \nframe=  287 fps=3.1 q=39.0 size=       1KiB time=00:00:02.38 bitrate=   1.9kbits/s speed=0.0255x elapsed=0:01:33.64    \n[out#0/matroska @ 000002235e8c90c0] video:812KiB audio:0KiB subtitle:0KiB other streams:0KiB global headers:0KiB muxing overhead: 0.236702%\nframe=  300 fps=3.2 q=37.0 Lsize=     814KiB time=00:00:02.49 bitrate=2675.8kbits/s speed=0.0265x elapsed=0:01:34.12    \n",
  "seconds": 97.3980143070221,
  "probe_out": {}
}